<svg id="Layer_1" data-name="Layer 1" xmlns="http://www.w3.org/2000/svg" viewBox="0 0 1085.22 463.45"><defs><style>.cls-1{fill:#fff;}</style></defs><rect width="1085.22" height="463.45"/><path class="cls-1" d="M407,161.29V103.37h11.43V88.72H376.82v14.65H390.7v59.78q0,11.43-2.41,19.09a31.35,31.35,0,0,1-6.77,12.28,24.38,24.38,0,0,1-10.46,6.56A43.78,43.78,0,0,1,357.68,203a36.48,36.48,0,0,1-12.91-2.2,25.36,25.36,0,0,1-10.16-7,33.45,33.45,0,0,1-6.69-12.36,60.81,60.81,0,0,1-2.42-18.33V103.37h13.13V88.72H297.05v14.65h11.77v59.44a69.34,69.34,0,0,0,3.77,23.75,52.16,52.16,0,0,0,10.33,17.57,43.33,43.33,0,0,0,15.41,10.92,48.39,48.39,0,0,0,19,3.73A50.28,50.28,0,0,0,376.82,215a44.11,44.11,0,0,0,15.75-11,52.49,52.49,0,0,0,10.54-18A72.84,72.84,0,0,0,407,161.29Z"/><path class="cls-1" d="M477.87,157.64q9.31,0,14.7,5t8,15.45l9.57,39h25L535,201h-11.1l-7.11-27.95a34.69,34.69,0,0,0-2.5-6.81,33.81,33.81,0,0,0-3.47-5.67,24.22,24.22,0,0,0-4.06-4.24,20,20,0,0,0-4.28-2.67,33.18,33.18,0,0,0,9.23-4.82,36.84,36.84,0,0,0,7.32-7.16,33.13,33.13,0,0,0,4.83-8.72,27.23,27.23,0,0,0,1.74-9.52,35.81,35.81,0,0,0-3-15,29.91,29.91,0,0,0-8.25-10.88A36.5,36.5,0,0,0,501.8,91,53.39,53.39,0,0,0,486,88.72H432.57v14.65h12.2v99.15h-12.2v14.57h41.66V202.52H461.36V157.64Zm-16.51-54.27H484q12.52,0,18.29,5.33T508,123.6a21.68,21.68,0,0,1-1.65,8.77,17.72,17.72,0,0,1-4.57,6.31,19.45,19.45,0,0,1-6.95,3.81,29.47,29.47,0,0,1-8.85,1.27H461.36Z"/><path class="cls-1" d="M654.55,179.07H638.46v16.17a5.82,5.82,0,0,1-.68,2.67,8.35,8.35,0,0,1-1.78,2.33,10,10,0,0,1-2.45,1.65,6.41,6.41,0,0,1-2.71.63H586.55V103.37h12.87V88.72H557.76v14.65H570v99.15h-12.2v14.57h96.79Z"/><polygon class="cls-1" points="299.59 267.17 311.79 267.17 311.79 366.32 299.59 366.32 299.59 380.89 341.25 380.89 341.25 366.32 328.38 366.32 328.38 322.63 372.5 322.63 372.5 308.4 328.38 308.4 328.38 267.17 374.19 267.17 374.19 288.84 391.55 288.84 391.55 252.52 299.59 252.52 299.59 267.17"/><path class="cls-1" d="M449.93,292.49a18.5,18.5,0,0,0-11.3,3.68,23.91,23.91,0,0,0-4.24,4.06,35.73,35.73,0,0,0-3.43,5V293.16h-28v14.57h12.19l-.08,58.59H402.94v14.57h43.52V366.32h-14.9V324a25.08,25.08,0,0,1,2.75-7.91,20.41,20.41,0,0,1,4.44-5.51,17.67,17.67,0,0,1,5.47-3.21,16.57,16.57,0,0,1,5.71-1.06v5.42H466V292.65c-2.6-.11-5.19-.16-7.79-.16Z"/><path class="cls-1" d="M560.47,303.28a39.6,39.6,0,0,0-13.84-9.36,46.74,46.74,0,0,0-17.83-3.3,46.17,46.17,0,0,0-17.69,3.3,39.82,39.82,0,0,0-13.89,9.45,43.5,43.5,0,0,0-9.1,14.69,55.44,55.44,0,0,0,0,37.85,43.53,43.53,0,0,0,9,14.69,39.85,39.85,0,0,0,13.8,9.52,45.83,45.83,0,0,0,17.95,3.39,45.13,45.13,0,0,0,17.83-3.43,40.09,40.09,0,0,0,13.84-9.61,44.18,44.18,0,0,0,9-14.77,57.11,57.11,0,0,0,0-37.81A42.87,42.87,0,0,0,560.47,303.28Zm-6.18,47.46a31.09,31.09,0,0,1-5.84,10.37,25.72,25.72,0,0,1-8.76,6.57A26.11,26.11,0,0,1,528.8,370a24.37,24.37,0,0,1-10.54-2.33,26.62,26.62,0,0,1-8.72-6.6,31.35,31.35,0,0,1-5.93-10.37A40.66,40.66,0,0,1,501.45,337a42.78,42.78,0,0,1,2.16-14.14,29.81,29.81,0,0,1,5.93-10.33,25,25,0,0,1,8.72-6.26,26.57,26.57,0,0,1,10.54-2.12,28.17,28.17,0,0,1,10.93,2.12,23.8,23.8,0,0,1,8.76,6.26,29.92,29.92,0,0,1,5.8,10.33A43.61,43.61,0,0,1,556.41,337,41.68,41.68,0,0,1,554.29,350.74Z"/><path class="cls-1" d="M678,324.32a44.9,44.9,0,0,0-2.16-14.69,26.39,26.39,0,0,0-6.14-10.2A24.87,24.87,0,0,0,660,293.5a39,39,0,0,0-12.7-1.95,32.42,32.42,0,0,0-7.92.94,39.32,39.32,0,0,0-7.24,2.54,43.93,43.93,0,0,0-6.65,3.81,67.83,67.83,0,0,0-6,4.65h-.17V293.16H591.42v14.57h12.19v58.59H591.42v14.57h41V366.32H620v-51.4a56.15,56.15,0,0,1,10.58-6.52,26,26,0,0,1,11.1-2.62q9.57,0,14.69,5.21t5.12,15.28v40.05H649.17v14.57h41V366.32H678Z"/><path class="cls-1" d="M751,370a27.31,27.31,0,0,1-6.27.64,13.75,13.75,0,0,1-5.92-1.23A7.47,7.47,0,0,1,735,365a24.48,24.48,0,0,1-1.19-8.39l.25-50.63H754.8V293.16H734.22V264.88l-15.41,7.28v21H704.67V306h14l-.25,48.26a56.17,56.17,0,0,0,1.44,13.85,21.17,21.17,0,0,0,4.36,8.85,16.22,16.22,0,0,0,7.2,4.7,32.4,32.4,0,0,0,10,1.39A40.25,40.25,0,0,0,752,381.77a42.48,42.48,0,0,0,8.56-3.34l-3.64-10.58A30.42,30.42,0,0,1,751,370Z"/><path class="cls-1" d="M787.4,270a10.51,10.51,0,0,0,3.51,2.46,10.74,10.74,0,0,0,4.32.89,10.2,10.2,0,0,0,4.19-.89,10.55,10.55,0,0,0,3.47-2.46,12.32,12.32,0,0,0,2.37-3.59,10.58,10.58,0,0,0,.89-4.32,10,10,0,0,0-.89-4.19,11.42,11.42,0,0,0-2.37-3.48,11.61,11.61,0,0,0-3.47-2.37,10.2,10.2,0,0,0-4.19-.89,10.74,10.74,0,0,0-4.32.89,11.55,11.55,0,0,0-3.51,2.37A11.42,11.42,0,0,0,785,257.9a10,10,0,0,0-.89,4.19,10.58,10.58,0,0,0,.89,4.32A12.32,12.32,0,0,0,787.4,270Z"/><polygon class="cls-1" points="803.02 293.16 774.4 293.16 774.4 307.73 787.1 307.73 787.1 366.32 774.57 366.32 774.57 380.89 816.23 380.89 816.23 366.32 803.02 366.32 803.02 293.16"/><path class="cls-1" d="M910.39,332.62q-.14-3.3-.55-6.52a66.68,66.68,0,0,0-3-13,34.55,34.55,0,0,0-6.35-11.31,30.34,30.34,0,0,0-10.84-8q-6.64-3-16.55-3a41.53,41.53,0,0,0-18,3.64,37.43,37.43,0,0,0-12.92,9.86A42.18,42.18,0,0,0,834.39,319a58.74,58.74,0,0,0-2.62,17.74A60.58,60.58,0,0,0,834.86,357a41.08,41.08,0,0,0,8.55,14.56,35.13,35.13,0,0,0,13,8.81,44.93,44.93,0,0,0,16.47,3A57.46,57.46,0,0,0,891,380.46a69.14,69.14,0,0,0,17.36-8.8l-6.35-10.76a64.4,64.4,0,0,1-13.59,6,47.07,47.07,0,0,1-13.34,1.91,29,29,0,0,1-15.62-4.28,24.39,24.39,0,0,1-10-12.74,35.59,35.59,0,0,1-1.56-5.89,38.65,38.65,0,0,1-.55-6.81h63.16Q910.51,335.93,910.39,332.62Zm-62.2-5.84a43.34,43.34,0,0,1,2.59-9.49,21.76,21.76,0,0,1,4.61-7.15,19.38,19.38,0,0,1,7-4.49,27,27,0,0,1,9.61-1.57,25.12,25.12,0,0,1,9.82,1.7,17.07,17.07,0,0,1,6.52,4.74,20,20,0,0,1,3.77,7.2,42.15,42.15,0,0,1,1.56,9.06Z"/><path class="cls-1" d="M989,292.49h-8.29a18.56,18.56,0,0,0-11.31,3.68,24.2,24.2,0,0,0-4.23,4.06,34.9,34.9,0,0,0-3.43,5V293.16h-28v14.57h12.19l-.08,58.59H933.67v14.57h43.52V366.32h-14.9V324a25.08,25.08,0,0,1,2.75-7.91,20.25,20.25,0,0,1,4.45-5.51,17.51,17.51,0,0,1,5.46-3.21,16.62,16.62,0,0,1,5.72-1.06v5.42h16.08V292.65Q992.87,292.49,989,292.49Z"/><path class="cls-1" d="M202.64,90.2h31.63L125.21,380.64H93.59Z"/></svg>